<svg width="302" height="302" viewBox="0 0 302 302" fill="none" xmlns="http://www.w3.org/2000/svg">
<path d="M302 151C302 234.395 234.395 302 151 302C67.605 302 0 234.395 0 151C0 67.605 67.605 0 151 0C234.395 0 302 67.605 302 151Z" fill="#F0EDE3"/>
<path d="M64.6735 191.024C58.1882 191.024 52.5135 189.573 47.6495 186.672C42.7855 183.685 38.9882 179.675 36.2575 174.64C33.6122 169.605 32.2895 164.059 32.2895 158C32.2895 151.856 33.5695 146.309 36.1295 141.36C38.6895 136.325 42.3588 132.357 47.1375 129.456C51.9162 126.469 57.5482 124.976 64.0335 124.976C70.6042 124.976 76.2362 126.469 80.9295 129.456C85.7082 132.357 89.3775 136.325 91.9375 141.36C94.4975 146.309 95.7775 151.856 95.7775 158V161.84H42.1455C42.6575 165.595 43.8522 169.051 45.7295 172.208C47.6922 175.28 50.2948 177.755 53.5375 179.632C56.7802 181.424 60.5348 182.32 64.8015 182.32C69.3242 182.32 73.1215 181.339 76.1935 179.376C79.2655 177.328 81.6548 174.725 83.3615 171.568H93.8575C91.6388 177.285 88.0975 181.979 83.2335 185.648C78.4548 189.232 72.2682 191.024 64.6735 191.024ZM42.2735 152.88H85.7935C84.9402 147.419 82.6362 142.853 78.8815 139.184C75.1268 135.515 70.1775 133.68 64.0335 133.68C57.8895 133.68 52.9402 135.515 49.1855 139.184C45.5162 142.853 43.2122 147.419 42.2735 152.88ZM107.124 115.248V102.704H117.492V115.248H107.124ZM107.508 190V126H117.108V190H107.508ZM133.758 190V126H143.358V135.984C145.662 132.912 148.478 130.309 151.806 128.176C155.134 126.043 159.4 124.976 164.606 124.976C169.043 124.976 173.182 126.043 177.022 128.176C180.947 130.224 184.104 133.339 186.494 137.52C188.968 141.616 190.206 146.693 190.206 152.752V190H180.606V153.008C180.606 147.205 178.942 142.555 175.614 139.056C172.286 135.472 167.976 133.68 162.686 133.68C159.102 133.68 155.859 134.491 152.958 136.112C150.056 137.733 147.71 140.037 145.918 143.024C144.211 145.925 143.358 149.296 143.358 153.136V190H133.758ZM233.266 191.024C227.036 191.024 221.575 189.573 216.882 186.672C212.274 183.685 208.69 179.675 206.13 174.64C203.57 169.605 202.29 164.059 202.29 158C202.29 151.856 203.57 146.309 206.13 141.36C208.69 136.325 212.274 132.357 216.882 129.456C221.575 126.469 227.036 124.976 233.266 124.976C238.556 124.976 243.079 126 246.834 128.048C250.674 130.096 253.788 132.869 256.178 136.368V126H265.778V190H256.178V179.76C253.788 183.173 250.674 185.904 246.834 187.952C243.079 190 238.556 191.024 233.266 191.024ZM234.546 182.32C239.324 182.32 243.335 181.211 246.578 178.992C249.906 176.773 252.423 173.829 254.13 170.16C255.836 166.405 256.69 162.352 256.69 158C256.69 153.563 255.836 149.509 254.13 145.84C252.423 142.171 249.906 139.227 246.578 137.008C243.335 134.789 239.324 133.68 234.546 133.68C229.852 133.68 225.799 134.789 222.386 137.008C218.972 139.227 216.37 142.171 214.578 145.84C212.786 149.509 211.89 153.563 211.89 158C211.89 162.352 212.786 166.405 214.578 170.16C216.37 173.829 218.972 176.773 222.386 178.992C225.799 181.211 229.852 182.32 234.546 182.32Z" fill="#3A0324"/>
</svg>
