<svg width="25" height="19" viewBox="0 0 25 19" fill="none" xmlns="http://www.w3.org/2000/svg">
<path
  d="M1.21951 0C0.546006 0 0 0.557787 0 1.2459C0 1.93401 0.546006 2.4918 1.21951 2.4918H23.7805C24.454 2.4918 25 1.93401 25 1.2459C25 0.557787 24.454 0 23.7805 0H1.21951ZM1.21951 8.09836C0.546006 8.09836 0 8.65615 0 9.34426C0 10.0324 0.546006 10.5902 1.21951 10.5902H23.7805C24.454 10.5902 25 10.0324 25 9.34426C25 8.65615 24.454 8.09836 23.7805 8.09836H1.21951ZM1.21951 16.1967C0.546006 16.1967 0 16.7545 0 17.4426C0 18.1307 0.546006 18.6885 1.21951 18.6885H23.7805C24.454 18.6885 25 18.1307 25 17.4426C25 16.7545 24.454 16.1967 23.7805 16.1967H1.21951Z"
  fill="#182A26"
/>
</svg>
